HIERARCHY
ROOT Hips
{
	OFFSET 0.000000 121.760803 0.000000
	CHANNELS 6 Xposition Yposition Zposition Xrotation Yrotation Zrotation 
	JOINT Spine
	{
		OFFSET 0.072000 7.257294 -0.789700
		CHANNELS 3 Xrotation Yrotation Zrotation
		JOINT Spine1
		{
			OFFSET 0.000000 12.508769 -0.658067
			CHANNELS 3 Xrotation Yrotation Zrotation
			JOINT Spine1_split
			{
				OFFSET 0.000000 12.508769 -0.658067
				CHANNELS 3 Xrotation Yrotation Zrotation
				JOINT Spine2
				{
					OFFSET 0.000000 12.508769 -0.658067
					CHANNELS 3 Xrotation Yrotation Zrotation
					JOINT Neck
					{
						OFFSET 0.000000 14.033295 7.520400
						CHANNELS 3 Xrotation Yrotation Zrotation
						JOINT Head
						{
							OFFSET 0.000000 8.198502 5.703100
							CHANNELS 3 Xrotation Yrotation Zrotation
							JOINT HeadTop_End
							{
								OFFSET 0.000000 17.760803 13.332701
								CHANNELS 3 Xrotation Yrotation Zrotation
								End Site
								{
									OFFSET 0.000000 0.000000 0.000000
								}
							}
						}
					}
					JOINT LeftShoulder
					{
						OFFSET 6.292450 5.785301 -0.669000
						CHANNELS 3 Xrotation Yrotation Zrotation
						JOINT LeftShoulder_split
						{
							OFFSET 6.292450 5.785301 -0.669000
							CHANNELS 3 Xrotation Yrotation Zrotation
							JOINT LeftArm
							{
								OFFSET 13.907140 -6.093903 1.965100
								CHANNELS 3 Xrotation Yrotation Zrotation
								JOINT LeftForeArm
								{
									OFFSET 34.140198 0.000000 0.000000
									CHANNELS 3 Xrotation Yrotation Zrotation
									JOINT LeftHand
									{
										OFFSET 40.960209 0.000000 0.000000
										CHANNELS 3 Xrotation Yrotation Zrotation
										JOINT LeftHandThumb1
										{
											OFFSET 10.006996 -7.170425 9.573125
											CHANNELS 3 Xrotation Yrotation Zrotation
											JOINT LeftHandThumb2
											{
												OFFSET 1.835007 -1.059448 1.059443
												CHANNELS 3 Xrotation Yrotation Zrotation
												JOINT LeftHandThumb3
												{
													OFFSET 2.112267 -1.219513 1.219518
													CHANNELS 3 Xrotation Yrotation Zrotation
													JOINT LeftHandThumb4
													{
														OFFSET 4.843811 -2.796570 2.796576
														CHANNELS 3 Xrotation Yrotation Zrotation
														End Site
														{
															OFFSET 0.000000 0.000000 0.000000
														}
													}
												}
											}
										}
										JOINT LeftHandIndex1
										{
											OFFSET 18.389847 -0.922348 4.596882
											CHANNELS 3 Xrotation Yrotation Zrotation
											JOINT LeftHandIndex2
											{
												OFFSET 4.711273 0.000000 0.000000
												CHANNELS 3 Xrotation Yrotation Zrotation
												JOINT LeftHandIndex3
												{
													OFFSET 2.886131 0.000000 0.000000
													CHANNELS 3 Xrotation Yrotation Zrotation
													JOINT LeftHandIndex4
													{
														OFFSET 6.145912 0.000000 0.000000
														CHANNELS 3 Xrotation Yrotation Zrotation
														End Site
														{
															OFFSET 0.000000 0.000000 0.000000
														}
													}
												}
											}
										}
										JOINT LeftHandMiddle1
										{
											OFFSET 18.013008 0.000000 0.000000
											CHANNELS 3 Xrotation Yrotation Zrotation
											JOINT LeftHandMiddle2
											{
												OFFSET 4.946693 0.000000 0.000000
												CHANNELS 3 Xrotation Yrotation Zrotation
												JOINT LeftHandMiddle3
												{
													OFFSET 3.342232 0.000000 0.000000
													CHANNELS 3 Xrotation Yrotation Zrotation
													JOINT LeftHandMiddle4
													{
														OFFSET 4.461754 0.000000 0.000000
														CHANNELS 3 Xrotation Yrotation Zrotation
														End Site
														{
															OFFSET 0.000000 0.000000 0.000000
														}
													}
												}
											}
										}
										JOINT LeftHandRing1
										{
											OFFSET 15.849892 -0.102921 -4.126150
											CHANNELS 3 Xrotation Yrotation Zrotation
											JOINT LeftHandRing2
											{
												OFFSET 3.527054 0.000000 0.000000
												CHANNELS 3 Xrotation Yrotation Zrotation
												JOINT LeftHandRing3
												{
													OFFSET 2.961098 0.000000 0.000000
													CHANNELS 3 Xrotation Yrotation Zrotation
													JOINT LeftHandRing4
													{
														OFFSET 4.927200 0.000000 0.000000
														CHANNELS 3 Xrotation Yrotation Zrotation
														End Site
														{
															OFFSET 0.000000 0.000000 0.000000
														}
													}
												}
											}
										}
										JOINT LeftHandPinky1
										{
											OFFSET 12.791824 -0.832031 -6.799156
											CHANNELS 3 Xrotation Yrotation Zrotation
											JOINT LeftHandPinky2
											{
												OFFSET 3.327133 0.000000 0.000000
												CHANNELS 3 Xrotation Yrotation Zrotation
												JOINT LeftHandPinky3
												{
													OFFSET 3.014900 0.000000 0.000000
													CHANNELS 3 Xrotation Yrotation Zrotation
													JOINT LeftHandPinky4
													{
														OFFSET 5.847786 0.000000 0.000000
														CHANNELS 3 Xrotation Yrotation Zrotation
														End Site
														{
															OFFSET 0.000000 0.000000 0.000000
														}
													}
												}
											}
										}
									}
								}
							}
						}
					}
					JOINT RightShoulder
					{
						OFFSET -6.292450 5.785301 -0.669000
						CHANNELS 3 Xrotation Yrotation Zrotation
						JOINT RightShoulder_split
						{
							OFFSET -6.292450 5.785301 -0.669000
							CHANNELS 3 Xrotation Yrotation Zrotation
							JOINT RightArm
							{
								OFFSET -13.907140 -6.093903 1.965100
								CHANNELS 3 Xrotation Yrotation Zrotation
								JOINT RightForeArm
								{
									OFFSET -34.140198 0.000000 0.000000
									CHANNELS 3 Xrotation Yrotation Zrotation
									JOINT RightHand
									{
										OFFSET -40.960209 0.000000 0.000000
										CHANNELS 3 Xrotation Yrotation Zrotation
										JOINT RightHandThumb1
										{
											OFFSET -10.007050 -7.170456 9.573117
											CHANNELS 3 Xrotation Yrotation Zrotation
											JOINT RightHandThumb2
											{
												OFFSET -1.835007 -1.059448 1.059443
												CHANNELS 3 Xrotation Yrotation Zrotation
												JOINT RightHandThumb3
												{
													OFFSET -2.112267 -1.219513 1.219518
													CHANNELS 3 Xrotation Yrotation Zrotation
													JOINT RightHandThumb4
													{
														OFFSET -4.843834 -2.796585 2.796590
														CHANNELS 3 Xrotation Yrotation Zrotation
														End Site
														{
															OFFSET 0.000000 0.000000 0.000000
														}
													}
												}
											}
										}
										JOINT RightHandIndex1
										{
											OFFSET -18.389870 -0.922424 4.596786
											CHANNELS 3 Xrotation Yrotation Zrotation
											JOINT RightHandIndex2
											{
												OFFSET -4.711273 0.000000 0.000000
												CHANNELS 3 Xrotation Yrotation Zrotation
												JOINT RightHandIndex3
												{
													OFFSET -2.886131 0.000000 0.000000
													CHANNELS 3 Xrotation Yrotation Zrotation
													JOINT RightHandIndex4
													{
														OFFSET -6.145920 0.000000 0.000000
														CHANNELS 3 Xrotation Yrotation Zrotation
														End Site
														{
															OFFSET 0.000000 0.000000 0.000000
														}
													}
												}
											}
										}
										JOINT RightHandMiddle1
										{
											OFFSET -18.013008 0.000000 0.000000
											CHANNELS 3 Xrotation Yrotation Zrotation
											JOINT RightHandMiddle2
											{
												OFFSET -4.946693 0.000000 0.000000
												CHANNELS 3 Xrotation Yrotation Zrotation
												JOINT RightHandMiddle3
												{
													OFFSET -3.342232 0.000000 0.000000
													CHANNELS 3 Xrotation Yrotation Zrotation
													JOINT RightHandMiddle4
													{
														OFFSET -4.461754 0.000000 0.000000
														CHANNELS 3 Xrotation Yrotation Zrotation
														End Site
														{
															OFFSET 0.000000 0.000000 0.000000
														}
													}
												}
											}
										}
										JOINT RightHandRing1
										{
											OFFSET -15.849876 -0.102936 -4.126237
											CHANNELS 3 Xrotation Yrotation Zrotation
											JOINT RightHandRing2
											{
												OFFSET -3.527054 0.000000 0.000000
												CHANNELS 3 Xrotation Yrotation Zrotation
												JOINT RightHandRing3
												{
													OFFSET -2.961098 0.000000 0.000000
													CHANNELS 3 Xrotation Yrotation Zrotation
													JOINT RightHandRing4
													{
														OFFSET -4.927200 0.000000 0.000000
														CHANNELS 3 Xrotation Yrotation Zrotation
														End Site
														{
															OFFSET 0.000000 0.000000 0.000000
														}
													}
												}
											}
										}
										JOINT RightHandPinky1
										{
											OFFSET -12.791786 -0.832077 -6.799222
											CHANNELS 3 Xrotation Yrotation Zrotation
											JOINT RightHandPinky2
											{
												OFFSET -3.327133 0.000000 0.000000
												CHANNELS 3 Xrotation Yrotation Zrotation
												JOINT RightHandPinky3
												{
													OFFSET -3.014900 0.000000 0.000000
													CHANNELS 3 Xrotation Yrotation Zrotation
													JOINT RightHandPinky4
													{
														OFFSET -5.847786 0.000000 0.000000
														CHANNELS 3 Xrotation Yrotation Zrotation
														End Site
														{
															OFFSET 0.000000 0.000000 0.000000
														}
													}
												}
											}
										}
									}
								}
							}
						}
					}
				}
			}
		}
	}
	JOINT LeftUpLeg
	{
		OFFSET 13.026900 -6.336304 -1.092800
		CHANNELS 3 Xrotation Yrotation Zrotation
		JOINT LeftLeg
		{
			OFFSET 0.524474 -46.096886 9.782700
			CHANNELS 3 Xrotation Yrotation Zrotation
			JOINT LeftFoot
			{
				OFFSET -0.524474 -53.427422 -12.948200
				CHANNELS 3 Xrotation Yrotation Zrotation
				JOINT LeftToeBase
				{
					OFFSET 0.192200 -14.009700 16.364100
					CHANNELS 3 Xrotation Yrotation Zrotation
					JOINT LeftToe_End
					{
						OFFSET -1.784700 -0.561700 9.474800
						CHANNELS 3 Xrotation Yrotation Zrotation
						End Site
						{
							OFFSET 0.000000 0.000000 0.000000
						}
					}
				}
			}
		}
	}
	JOINT RightUpLeg
	{
		OFFSET -12.883000 -6.336304 -1.092800
		CHANNELS 3 Xrotation Yrotation Zrotation
		JOINT RightLeg
		{
			OFFSET -0.524587 -46.096825 9.782800
			CHANNELS 3 Xrotation Yrotation Zrotation
			JOINT RightFoot
			{
				OFFSET 0.524587 -53.427383 -12.948300
				CHANNELS 3 Xrotation Yrotation Zrotation
				JOINT RightToeBase
				{
					OFFSET -0.192200 -14.009700 16.364100
					CHANNELS 3 Xrotation Yrotation Zrotation
					JOINT RightToe_End
					{
						OFFSET 1.784700 -0.561700 9.474800
						CHANNELS 3 Xrotation Yrotation Zrotation
						End Site
						{
							OFFSET 0.000000 0.000000 0.000000
						}
					}
				}
			}
		}
	}
}
MOTION
Frames: 4
Frame Time: 0.016667
-12.956605 96.303513 4.259163 5.899533 -41.704951 13.460127 17.818095 -5.693930 2.007627 28.909032 -4.182640 -1.799676 0.000000 0.000000 0.000000 17.801753 -2.616841 -3.497783 3.925416 -0.806460 17.439379 7.730330 1.255945 -11.559171 -0.000001 0.000000 -0.000003 2.354283 -30.783089 2.356267 0.000000 0.000000 0.000000 -34.242829 -26.233522 -29.291427 -7.515770 -26.361409 1.290829 6.941807 -20.603892 5.351079 16.254354 -11.504943 21.549260 4.507372 18.475126 -9.635932 8.841677 13.664021 -1.275346 0.000000 -0.000001 -0.000000 1.539052 -3.432144 14.456420 -0.180792 -1.247022 -29.044123 -0.139240 -1.164290 -22.988204 0.000002 0.000000 0.000001 1.659196 1.542436 -11.529132 0.180712 -1.715854 -25.398292 0.336250 -2.045024 -28.954360 -0.000003 0.000004 0.000004 -0.041068 5.351816 -28.839886 -0.820806 -0.913430 -27.616161 -0.881407 -1.072852 -31.473628 0.000000 -0.000001 0.000000 0.111642 11.221144 -18.652982 -0.848716 -0.437672 -22.689946 -2.248525 -0.059542 -39.682156 -0.000001 -0.000001 -0.000003 -0.512611 12.805417 24.404309 0.000000 0.000000 0.000000 -20.406283 -19.745793 20.483659 -21.210703 81.262872 19.902944 -23.264562 11.560923 8.425370 55.149543 18.649550 -29.698264 -0.442536 -14.180583 7.313156 21.666975 -29.244486 9.142358 -0.000003 -0.000001 -0.000003 5.673397 7.585010 36.844165 1.050469 3.824518 68.900264 0.499561 3.026038 62.196454 0.000001 0.000002 0.000001 -0.125710 1.886085 45.000770 -1.168993 3.204667 68.417650 -0.936404 1.813629 41.107555 0.000001 -0.000001 0.000001 -5.311987 1.216650 58.508807 -0.745222 1.667570 48.011292 -0.816486 1.840620 53.666538 0.000002 -0.000003 -0.000001 -7.756795 -9.376462 47.263994 -0.526033 1.541602 45.600522 -0.508177 0.803434 24.986620 0.000000 -0.000002 -0.000004 -54.555514 32.478967 35.359370 38.975901 -26.013399 2.678474 4.084580 1.289736 -13.990526 -0.953569 -6.111300 0.978250 0.000000 -0.000001 0.000000 -21.213792 -6.681910 -31.350845 50.288077 1.115117 -6.693929 -33.791442 -6.709834 23.777518 0.528350 2.970028 1.471341 0.000000 -0.000001 -0.000000 
-12.447951 96.642776 4.409964 4.347654 -41.182742 11.925351 17.601992 -5.535638 1.976365 28.357200 -3.983564 -2.018754 0.000000 0.000000 0.000000 17.259820 -2.365354 -3.582331 3.399040 0.434952 18.470314 8.197273 1.394248 -12.300079 0.000000 0.000000 -0.000001 2.328586 -30.676866 2.585258 0.000000 0.000000 0.000000 -33.628826 -25.347561 -29.746512 -7.805130 -23.996577 1.221994 7.439362 -16.512030 6.913803 16.348007 -10.644447 20.290675 4.173229 18.061330 -9.539050 8.819973 13.691513 -1.261291 0.000003 -0.000002 -0.000000 -0.027713 -3.469705 16.408556 -0.157412 -1.203771 -27.954883 -0.118015 -1.121282 -22.001769 -0.000001 -0.000000 0.000001 1.407628 2.022337 -8.664057 0.274500 -1.534062 -22.087514 0.441814 -1.863449 -25.796701 0.000003 -0.000000 0.000001 0.329468 4.603413 -25.951966 -0.773372 -0.788264 -24.421517 -0.818834 -0.944876 -28.095134 -0.000001 0.000001 0.000001 1.291773 9.409276 -14.825735 -0.832754 -0.348425 -20.341067 -2.250997 -0.032423 -37.354571 0.000002 0.000002 0.000005 -0.608452 13.107902 25.085215 0.000000 0.000000 0.000000 -20.872674 -20.553217 19.260997 -11.667045 82.321354 10.693526 -23.900123 9.732267 8.487060 55.149543 18.649555 -29.698267 -0.442532 -14.180581 7.313154 21.666979 -29.244490 9.142359 0.000001 -0.000000 -0.000004 5.673392 7.585010 36.844161 1.050467 3.824531 68.900264 0.499565 3.026044 62.196447 -0.000001 0.000001 -0.000002 -0.125713 1.886088 45.000770 -1.168992 3.204667 68.417650 -0.936403 1.813627 41.107555 -0.000003 -0.000000 -0.000001 -5.311988 1.216649 58.508807 -0.745223 1.667574 48.011292 -0.816489 1.840620 53.666541 0.000001 -0.000002 -0.000001 -7.756797 -9.376460 47.263997 -0.526038 1.541598 45.600522 -0.508175 0.803437 24.986621 -0.000004 0.000002 -0.000001 -54.156980 32.628258 35.509959 38.960745 -26.196243 2.667695 4.343714 0.497782 -13.290756 -0.953569 -6.111300 0.978250 -0.000000 -0.000000 -0.000000 -19.639678 -7.528521 -31.178280 49.340054 0.994320 -6.621879 -33.248190 -6.795596 24.013483 0.528350 2.970033 1.471341 -0.000000 -0.000002 -0.000000 
-11.970608 96.932007 4.591393 3.112115 -40.465930 10.574267 17.408813 -5.300859 2.095077 27.805750 -3.750689 -1.987558 0.000000 0.000000 0.000000 16.722221 -2.190760 -3.347000 2.348158 1.128144 18.345331 8.178889 1.108629 -12.085783 -0.000000 -0.000001 0.000004 2.243009 -30.396224 2.625592 0.000000 0.000000 0.000000 -33.029197 -24.760068 -30.398126 -7.945686 -22.391730 0.965487 6.968090 -14.661028 7.619783 16.520313 -10.013525 19.194244 3.726986 17.497780 -9.405214 8.670550 13.479784 -1.218515 0.000001 0.000002 0.000003 -1.121912 -3.629176 17.132792 -0.125505 -1.141317 -26.402317 -0.092968 -1.063529 -20.704795 -0.000000 -0.000002 0.000001 1.251171 2.428151 -6.762187 0.341904 -1.385033 -19.439914 0.518514 -1.713234 -23.243228 -0.000001 0.000001 0.000002 0.442701 4.444521 -23.821680 -0.734578 -0.666218 -21.365057 -0.754503 -0.799096 -24.439397 -0.000001 0.000001 0.000001 2.196505 8.467055 -11.623437 -0.821264 -0.265651 -18.176549 -2.246812 -0.008333 -34.622741 -0.000001 -0.000000 -0.000002 -0.501979 12.543232 24.284794 0.000000 0.000000 0.000000 -20.300868 -21.057210 19.750071 -3.535709 83.023927 2.884590 -24.115009 8.786006 8.308349 55.149543 18.649558 -29.698264 -0.442533 -14.180574 7.313152 21.666977 -29.244486 9.142360 -0.000002 -0.000000 -0.000001 5.673395 7.585008 36.844165 1.050468 3.824524 68.900264 0.499566 3.026041 62.196447 0.000001 -0.000002 -0.000001 -0.125709 1.886087 45.000773 -1.168990 3.204668 68.417657 -0.936404 1.813627 41.107555 -0.000002 -0.000003 -0.000002 -5.311990 1.216649 58.508814 -0.745224 1.667577 48.011295 -0.816484 1.840618 53.666545 0.000004 -0.000001 -0.000001 -7.756794 -9.376464 47.263997 -0.526032 1.541599 45.600522 -0.508179 0.803433 24.986620 -0.000002 -0.000001 0.000001 -54.071042 32.693851 35.668375 39.031164 -26.402639 2.663330 4.604917 -0.339356 -12.563260 -0.953569 -6.111299 0.978250 -0.000000 -0.000001 -0.000000 -18.149720 -8.325017 -30.863224 48.403088 0.773179 -6.556223 -32.741584 -7.043978 24.270319 0.528350 2.970033 1.471341 0.000000 -0.000000 0.000000 
-11.495652 97.216843 4.778002 2.024499 -39.632415 9.367102 17.185854 -5.072839 2.192720 27.212092 -3.554405 -1.949087 0.000000 0.000000 0.000000 16.129915 -2.065774 -3.134687 1.254574 1.689152 17.729127 7.834695 0.608334 -11.472238 -0.000000 0.000001 -0.000001 2.180222 -30.084688 2.687285 0.000000 0.000000 0.000000 -32.508934 -24.092770 -31.048162 -8.013987 -21.085960 0.699061 6.449177 -13.147123 7.884988 16.823161 -9.647916 18.086857 3.016010 16.587717 -9.197017 8.295757 12.860997 -1.130138 0.000001 0.000001 0.000002 -1.666542 -3.856557 16.343914 -0.080186 -1.044509 -24.034975 -0.060077 -0.976332 -18.783719 -0.000001 0.000001 0.000000 1.220573 2.798732 -5.837808 0.392843 -1.258201 -17.228426 0.574415 -1.585247 -21.055784 0.000001 0.000002 -0.000000 0.086341 5.042129 -22.266482 -0.697781 -0.522224 -17.818278 -0.676528 -0.591926 -19.519689 -0.000003 0.000000 0.000001 2.680544 8.471294 -8.438558 -0.812042 -0.171810 -15.734268 -2.231141 0.019643 -30.599599 0.000001 0.000001 0.000001 -0.531454 12.423656 23.593316 0.000000 0.000000 0.000000 -19.558392 -22.044760 20.084142 3.472940 83.560254 -3.939592 -24.470165 8.375684 8.315507 55.149546 18.649553 -29.698267 -0.442534 -14.180578 7.313155 21.666979 -29.244493 9.142356 -0.000002 0.000000 -0.000001 5.673395 7.585012 36.844158 1.050468 3.824529 68.900264 0.499569 3.026040 62.196447 -0.000005 -0.000000 -0.000003 -0.125710 1.886088 45.000766 -1.168990 3.204668 68.417650 -0.936402 1.813631 41.107555 -0.000002 0.000001 0.000002 -5.311986 1.216652 58.508801 -0.745220 1.667580 48.011288 -0.816485 1.840613 53.666538 0.000001 0.000004 0.000003 -7.756796 -9.376458 47.263994 -0.526037 1.541605 45.600522 -0.508180 0.803434 24.986618 -0.000002 0.000000 -0.000001 -54.049841 32.775571 35.744347 39.074611 -26.610086 2.656509 4.900953 -1.204382 -11.818805 -0.953569 -6.111299 0.978250 0.000000 -0.000001 0.000000 -16.686985 -9.096983 -30.523627 47.447108 0.505317 -6.491095 -32.229620 -7.365463 24.538484 0.528350 2.970031 1.471341 0.000000 -0.000002 0.000000 
